<?xml version="1.0" encoding="utf-8"?>
<!-- Generator: Adobe Illustrator 27.1.1, SVG Export Plug-In . SVG Version: 6.00 Build 0)  -->
<svg version="1.1" id="Layer_1" xmlns="http://www.w3.org/2000/svg" xmlns:xlink="http://www.w3.org/1999/xlink" x="0px" y="0px"
	 viewBox="0 0 1919 1264" style="enable-background:new 0 0 1919 1264;" xml:space="preserve">
<style type="text/css">
	.st0{fill:url(#SVGID_1_);}
	.st1{fill:#FFFFFF;}
	.st2{font-family:'SofiaSans-HairLine';}
	.st3{font-size:12px;}
</style>
<g>
	
		<linearGradient id="SVGID_1_" gradientUnits="userSpaceOnUse" x1="6.4602" y1="1169.9786" x2="1708.9602" y2="165.4786" gradientTransform="matrix(1 0 0 -1 0 1263.2756)">
		<stop  offset="0" style="stop-color:#FFC52F"/>
		<stop  offset="1" style="stop-color:#F2A624"/>
	</linearGradient>
	<path class="st0" d="M245.4,126.6c-9.1-8.9-45-33.4-60.6-24.8c-15.6,8.6-43,63.2-67.5,75.8c-11.5,5.9-16.7,36.3-17.2,65.2
		c-0.5,24.6,10.6,28.6,10.9,38.7c6,13.7,25.8,14.6,25.8,41.4c0,41.8,11.3,51.3,38.4,58.3c54.3,23.5,59.9,69.2,87.1,81.8
		c38,17.6-22.2,44.7-41.4,87.4c-12.2,27.1-70.2,12.9-93.4,44.4c-7,10.6-8.9,49.3-7,77.8c1.6,23,19.8,21.8,26.2,30.8
		c17.9,25.2,5.3,24.2,0,38.7c-4.2,11.7-45.6,21.2-42.7,35.1c5.6,26.8,56,94.7,115.9,102.3c36.3,4.6,31.1,67.5,52.6,90.7
		c29.4,31.7,8.3,32.1-6,44.7c-11.4,10.1,7.3,57-8.3,108.3c6.3,14.6,37.4,15.4,57.6,11.6c14.6-2.8,28.5-3.3,39.4-20.9
		c11-17.6,19.4-2.3,32.4,0c25.8-16.6,57.7,1.3,69.2-3.3c79.2-31.7,93.3-9.4,105-31.5c23.2-43.7,41.1-13.4,77.5-18.9
		c21.9-3.3,46.9-16.6,52-11.3c39.7,41.4,61.7,78.3,81.5,69.5c49.3-21.9,26.5-7.9,53.3-7.9s46.1,44.6,73.2,50.7
		c32.4,7.3,55.5-7.1,71.9-13.2c68.2-25.8,123.5-7.6,145.7-19.5c25.2-13.6,57.5-34,29.5-74.2c-42-60.3-31.8-77.8,13.2-67.5
		c66.6,15.2,33.8-36.1,83.1-36.1c22.6,0,20.1-22.4,22.5-37.4c15.2-20.5,55.6-13.2,93-20.5c22.2-17,32.8-27.4,45-34.8
		c11.3-6.8,15.6,16.9,39.4-0.9c18.2-6.4,34,17.8,41.1,25.8c10.1,11.4,22.2,33.8,45.7,37.4c23.5,3.6,127.2-19.5,137.1-22.8
		c9.9-3.3-57.3-73.5-57.3-73.5c-8.6-8.9-18.9-34.8-18.9-52c-9.9-15.6-20.8-29.6-27.2-37.4c-15.9-19.5-48.8,8.3-57.6-11.6
		c-4-8.9,3.3-24.5,30.1-29.8c21.5-4.2,40.7-45,41.4-57.6c17.9-1.2,37.3,11.1,48.7,4c6.4-4-9.6-22.2,0-53c0-37.7-7.2-72.3,11.3-106.6
		c3.7-6.9-9.9-10.7-6.9-15.6c14.8-23.9,29.7,2.6,50.7-54.3c12.6-34.1,49-12.9,90.1-11.3c41.1,1.7,53.3-27.8,46.4-66.6
		c-6.3-35.1-4.6-58-9.9-61.3c-19.9-12.3-64.3-3-96.3-15.6c-98.3-38.4-62.6-70.9-78.8-81.5c-9.2-6-33.1,5-73.2-14.9
		c-26.5,0-49.6,7.4-66.2,4.6c-17.9-2.9-24.3-25.1-43.7-34.1c-17.1-7.9-55-4.6-76.8-4.6c-21.2,0-100,31.1-164.6,34.1
		c-60.4,15.2-88.4,27.8-105.6,55.6c-33.9,55-141.7,99-162.9,91.4c-38.7-13.9-97-43.4-155-31.8c-43.8,8.8-81.8-23.5-118.2-5.3
		c-53.6,26.8-108.9-6.3-153.6-17.2c-39.4-4-117.5-36.5-147.7-24.8c-37.7,14.6-92.4,17.9-113.9,7.3c-17.2-8.5-7.2-42.4,0-52.6
		c19.1-8.9,46.4-7.3,43.4-33.1C292.7,136.8,271.5,139.2,245.4,126.6L245.4,126.6z"/>
	<g>
		<g>
			<circle class="st1" cx="1518" cy="702" r="1"/>
			<text transform="matrix(1 0 0 1 1498.5602 702)" class="st1 st2 st3">БУРГАС</text>
		</g>
		<g>
			<circle class="st1" cx="1685" cy="396" r="1"/>
			<text transform="matrix(1 0 0 1 1664.4143 396)" class="st1 st2 st3">БАЛЧИК</text>
		</g>
		<g>
			<circle class="st1" cx="1447" cy="413" r="1"/>
			<text transform="matrix(1 0 0 1 1413.0942 413)" class="st1 st2 st3">НОВИ ПАЗАР</text>
		</g>
		<g>
			<circle class="st1" cx="1460" cy="642" r="1"/>
			<text transform="matrix(1 0 0 1 1442.0302 642)" class="st1 st2 st3">АЙТОС</text>
		</g>
		<g>
			<circle class="st1" cx="1383" cy="660" r="1"/>
			<text transform="matrix(1 0 0 1 1355.5742 660)" class="st1 st2 st3">КАРНОБАТ</text>
		</g>
		<g>
			<circle class="st1" cx="774" cy="660" r="1"/>
			<text transform="matrix(1 0 0 1 749.9281 660)" class="st1 st2 st3">КАРЛОВО</text>
		</g>
		<g>
			<circle class="st1" cx="858" cy="525" r="1"/>
			<text transform="matrix(1 0 0 1 829.7102 525)" class="st1 st2 st3">СЕВЛИЕВО</text>
		</g>
		<g>
			<circle class="st1" cx="1005" cy="505" r="1"/>
			<text transform="matrix(1 0 0 1 956.5204 505)" class="st1 st2 st3">ВЕЛИКО ТЪРНОВО</text>
		</g>
		<g>
			<circle class="st1" cx="1022" cy="484" r="1"/>
			<text transform="matrix(1 0 0 1 970.9824 484)" class="st1 st2 st3">ГОРНА ОРЯХОВИЦА</text>
		</g>
		<g>
			<circle class="st1" cx="1072" cy="560" r="1"/>
			<text transform="matrix(1 0 0 1 1052.5602 560)" class="st1 st2 st3">БУРГАС</text>
		</g>
		<g>
			<circle class="st1" cx="1106" cy="217" r="1"/>
			<text transform="matrix(1 0 0 1 1092.4642 217)" class="st1 st2 st3">РУСЕ</text>
		</g>
		<g>
			<circle class="st1" cx="1459" cy="139" r="1"/>
			<text transform="matrix(1 0 0 1 1430.7522 139)" class="st1 st2 st3">СИЛИСТРА</text>
		</g>
		<g>
			<circle class="st1" cx="1505" cy="270" r="1"/>
			<text transform="matrix(1 0 0 1 1485.2242 270)" class="st1 st2 st3">ТЕРВЕЛ</text>
		</g>
		<g>
			<circle class="st1" cx="1195" cy="645" r="1"/>
			<text transform="matrix(1 0 0 1 1173.3162 645)" class="st1 st2 st3">СЛИВЕН</text>
		</g>
		<g>
			<circle class="st1" cx="982" cy="905" r="1"/>
			<text transform="matrix(1 0 0 1 957.2202 905)" class="st1 st2 st3">ХАСКОВО</text>
		</g>
		<g>
			<circle class="st1" cx="929" cy="1014" r="1"/>
			<text transform="matrix(1 0 0 1 899.1805 1014)" class="st1 st2 st3">КЪРДЖАЛИ</text>
		</g>
		<g>
			<circle class="st1" cx="939" cy="1057" r="1"/>
			<text transform="matrix(1 0 0 1 902.1544 1057)" class="st1 st2 st3">МОМЧИЛГРАД</text>
		</g>
		<g>
			<circle class="st1" cx="849" cy="1115" r="1"/>
			<text transform="matrix(1 0 0 1 819.2943 1115)" class="st1 st2 st3">ЗЛАТОГРАД</text>
		</g>
		<g>
			<circle class="st1" cx="817" cy="1074" r="1"/>
			<text transform="matrix(1 0 0 1 798.1063 1074)" class="st1 st2 st3">МАДАН</text>
		</g>
		<g>
			<circle class="st1" cx="756" cy="840" r="1"/>
			<text transform="matrix(1 0 0 1 730.5182 840)" class="st1 st2 st3">ПЛОВДИВ</text>
		</g>
		<g>
			<circle class="st1" cx="787" cy="892" r="1"/>
			<text transform="matrix(1 0 0 1 752.4284 892)" class="st1 st2 st3">АСЕНОВГРАД</text>
		</g>
		<g>
			<circle class="st1" cx="636" cy="817" r="1"/>
			<text transform="matrix(1 0 0 1 603.0364 817)" class="st1 st2 st3">ПАЗАРДЖИК</text>
		</g>
		<g>
			<circle class="st1" cx="631" cy="868" r="1"/>
			<text transform="matrix(1 0 0 1 608.6323 868)" class="st1 st2 st3">ПЕЩЕРА</text>
		</g>
		<g>
			<circle class="st1" cx="496" cy="733" r="1"/>
			<text transform="matrix(1 0 0 1 469.8763 733)" class="st1 st2 st3">ИХТИМАН</text>
		</g>
		<g>
			<circle class="st1" cx="595" cy="710" r="1"/>
			<text transform="matrix(1 0 0 1 556.5645 710)" class="st1 st2 st3">ПАНАГЮРИЩЕ</text>
		</g>
		<g>
			<circle class="st1" cx="564" cy="876" r="1"/>
			<text transform="matrix(1 0 0 1 533.1604 876)" class="st1 st2 st3">ВЕЛИНГРАД</text>
		</g>
		<g>
			<circle class="st1" cx="401" cy="946" r="1"/>
			<text transform="matrix(1 0 0 1 379.3342 946)" class="st1 st2 st3">БАНСКО</text>
		</g>
		<g>
			<circle class="st1" cx="391" cy="930" r="1"/>
			<text transform="matrix(1 0 0 1 371.3801 930)" class="st1 st2 st3">РАЗЛОГ</text>
		</g>
		<g>
			<circle class="st1" cx="298" cy="796" r="1"/>
			<text transform="matrix(1 0 0 1 272.0204 796)" class="st1 st2 st3">ДУПНИЦА</text>
		</g>
		<g>
			<circle class="st1" cx="180" cy="786" r="1"/>
			<text transform="matrix(1 0 0 1 146.4663 786)" class="st1 st2 st3">КЮСТЕНДИЛ</text>
		</g>
		<g>
			<circle class="st1" cx="288" cy="881" r="1"/>
			<text transform="matrix(1 0 0 1 251.7245 881)" class="st1 st2 st3">БЛАГОЕВГРАД</text>
		</g>
		<g>
			<circle class="st1" cx="267" cy="833" r="1"/>
			<text transform="matrix(1 0 0 1 236.4543 833)" class="st1 st2 st3">БОБОШЕВО</text>
		</g>
		<g>
			<circle class="st1" cx="293" cy="930" r="1"/>
			<text transform="matrix(1 0 0 1 266.5641 930)" class="st1 st2 st3">СИМИТЛИ</text>
		</g>
		<g>
			<circle class="st1" cx="308" cy="967" r="1"/>
			<text transform="matrix(1 0 0 1 287.1742 967)" class="st1 st2 st3">КРЕСНА</text>
		</g>
		<g>
			<circle class="st1" cx="356" cy="642" r="1"/>
			<text transform="matrix(1 0 0 1 335.9361 642)" class="st1 st2 st3">СОФИЯ</text>
		</g>
		<g>
			<circle class="st1" cx="361" cy="546" r="1"/>
			<text transform="matrix(1 0 0 1 343.7382 546)" class="st1 st2 st3">СВОГЕ</text>
		</g>
		<g>
			<circle class="st1" cx="463" cy="485" r="1"/>
			<text transform="matrix(1 0 0 1 441.6582 485)" class="st1 st2 st3">МЕЗДРА</text>
		</g>
		<g>
			<circle class="st1" cx="573" cy="525" r="1"/>
			<text transform="matrix(1 0 0 1 544.2303 525)" class="st1 st2 st3">ЯБЛАНИЦА</text>
		</g>
		<g>
			<circle class="st1" cx="478" cy="573" r="1"/>
			<text transform="matrix(1 0 0 1 447.8144 573)" class="st1 st2 st3">БОТЕВГРАД</text>
		</g>
		<g>
			<circle class="st1" cx="329" cy="389" r="1"/>
			<text transform="matrix(1 0 0 1 303.1642 389)" class="st1 st2 st3">МОНТАНА</text>
		</g>
		<g>
			<circle class="st1" cx="172" cy="313" r="1"/>
			<text transform="matrix(1 0 0 1 134.5785 313)" class="st1 st2 st3">БЕЛОГРАДЧИК</text>
		</g>
		<g>
			<circle class="st1" cx="303" cy="446" r="1"/>
			<text transform="matrix(1 0 0 1 271.0024 446)" class="st1 st2 st3">БЕРКОВИЦА</text>
		</g>
		<g>
			<circle class="st1" cx="334" cy="238" r="1"/>
			<text transform="matrix(1 0 0 1 322.456 238)" class="st1 st2 st3">ЛОМ</text>
		</g>
		<g>
			<circle class="st1" cx="795" cy="278" r="1"/>
			<text transform="matrix(1 0 0 1 768.9062 278)" class="st1 st2 st3">НИКОПОЛ</text>
		</g>
		<g>
			<circle class="st1" cx="719" cy="384" r="1"/>
			<text transform="matrix(1 0 0 1 697.8203 384)" class="st1 st2 st3">ПЛЕВЕН</text>
		</g>
		<g>
			<circle class="st1" cx="747" cy="474" r="1"/>
			<text transform="matrix(1 0 0 1 729.6062 474)" class="st1 st2 st3">ЛОВЕЧ</text>
		</g>
		<g>
			<circle class="st1" cx="868" cy="407" r="1"/>
			<text transform="matrix(1 0 0 1 846.9943 407)" class="st1 st2 st3">ЛЕВСКИ</text>
		</g>
		<g>
			<circle class="st1" cx="1173" cy="407" r="1"/>
			<text transform="matrix(1 0 0 1 1150.0862 407)" class="st1 st2 st3">ПОПОВО</text>
		</g>
		<g>
			<circle class="st1" cx="1248" cy="341" r="1"/>
			<text transform="matrix(1 0 0 1 1225.2123 341)" class="st1 st2 st3">РАЗГРАД</text>
		</g>
		<g>
			<circle class="st1" cx="473" cy="248" r="1"/>
			<text transform="matrix(1 0 0 1 444.6442 248)" class="st1 st2 st3">КОЗЛОДУЙ</text>
		</g>
		<g>
			<circle class="st1" cx="245" cy="181" r="1"/>
			<text transform="matrix(1 0 0 1 226.0042 181)" class="st1 st2 st3">ВИДИН</text>
		</g>
		<g>
			<circle class="st1" cx="420" cy="768" r="1"/>
			<text transform="matrix(1 0 0 1 393.8702 768)" class="st1 st2 st3">САМОКОВ</text>
		</g>
		<g>
			<circle class="st1" cx="435" cy="786" r="1"/>
			<text transform="matrix(1 0 0 1 409.8842 786)" class="st1 st2 st3">БОРОВЕЦ</text>
		</g>
		<g>
			<circle class="st1" cx="470" cy="1037" r="1"/>
			<text transform="matrix(1 0 0 1 434.4925 1037)" class="st1 st2 st3">ГОЦЕ ДЕЛЧЕВ</text>
		</g>
		<g>
			<circle class="st1" cx="739" cy="1040" r="1"/>
			<text transform="matrix(1 0 0 1 716.1761 1040)" class="st1 st2 st3">СМОЛЯН</text>
		</g>
		<g>
			<circle class="st1" cx="1173" cy="979" r="1"/>
			<text transform="matrix(1 0 0 1 1138.3025 979)" class="st1 st2 st3">СВИЛЕНГРАД</text>
		</g>
		<g>
			<circle class="st1" cx="1270" cy="828" r="1"/>
			<text transform="matrix(1 0 0 1 1249.1921 828)" class="st1 st2 st3">ЕЛХОВО</text>
		</g>
		<g>
			<circle class="st1" cx="929" cy="310" r="1"/>
			<text transform="matrix(1 0 0 1 905.0361 310)" class="st1 st2 st3">СВИЩОВ</text>
		</g>
		<g>
			<circle class="st1" cx="747" cy="573" r="1"/>
			<text transform="matrix(1 0 0 1 729.0302 573)" class="st1 st2 st3">ТРОЯН</text>
		</g>
		<g>
			<circle class="st1" cx="807" cy="590" r="1"/>
			<text transform="matrix(1 0 0 1 781.4822 590)" class="st1 st2 st3">АПРИЛЦИ</text>
		</g>
		<g>
			<circle class="st1" cx="934" cy="670" r="1"/>
			<text transform="matrix(1 0 0 1 906.2563 670)" class="st1 st2 st3">КАЗАНЛЪК</text>
		</g>
		<g>
			<circle class="st1" cx="916" cy="576" r="1"/>
			<text transform="matrix(1 0 0 1 892.2701 576)" class="st1 st2 st3">ГАБРОВО</text>
		</g>
		<g>
			<circle class="st1" cx="1008" cy="738" r="1"/>
			<text transform="matrix(1 0 0 1 970.4882 738)" class="st1 st2 st3">СТАРА ЗАГОРА</text>
		</g>
		<g>
			<circle class="st1" cx="1254" cy="722" r="1"/>
			<text transform="matrix(1 0 0 1 1235.4481 722)" class="st1 st2 st3">ЯМБОЛ</text>
		</g>
		<g>
			<circle class="st1" cx="1369" cy="434" r="1"/>
			<text transform="matrix(1 0 0 1 1348.6542 434)" class="st1 st2 st3">ШУМЕН</text>
		</g>
		<g>
			<circle class="st1" cx="1624" cy="329" r="1"/>
			<text transform="matrix(1 0 0 1 1602.0823 329)" class="st1 st2 st3">ДОБРИЧ</text>
		</g>
		<g>
			<circle class="st1" cx="1769" cy="393" r="1"/>
			<text transform="matrix(1 0 0 1 1745.2222 393)" class="st1 st2 st3">КАВАРНА</text>
		</g>
		<g>
			<circle class="st1" cx="1806" cy="329" r="1"/>
			<text transform="matrix(1 0 0 1 1787.4482 329)" class="st1 st2 st3">ШАБЛА</text>
		</g>
		<g>
			<circle class="st1" cx="1649" cy="451" r="1"/>
			<text transform="matrix(1 0 0 1 1631.8401 451)" class="st1 st2 st3">ВАРНА</text>
		</g>
		<g>
			<circle class="st1" cx="1568" cy="451" r="1"/>
			<text transform="matrix(1 0 0 1 1550.0363 451)" class="st1 st2 st3">ДЕВНЯ</text>
		</g>
		<g>
			<circle class="st1" cx="1515" cy="468" r="1"/>
			<text transform="matrix(1 0 0 1 1485.9363 468)" class="st1 st2 st3">ПРОВАДИЯ</text>
		</g>
		<g>
			<circle class="st1" cx="1626" cy="573" r="1"/>
			<text transform="matrix(1 0 0 1 1612.5541 573)" class="st1 st2 st3">БЯЛА</text>
		</g>
		<g>
			<circle class="st1" cx="1623" cy="601" r="1"/>
			<text transform="matrix(1 0 0 1 1605.1681 601)" class="st1 st2 st3">ОБЗОР</text>
		</g>
		<g>
			<circle class="st1" cx="1573" cy="655" r="1"/>
			<text transform="matrix(1 0 0 1 1536.5383 655)" class="st1 st2 st3">КАБЛЕШКОВО</text>
		</g>
		<g>
			<circle class="st1" cx="1601" cy="637" r="1"/>
			<text transform="matrix(1 0 0 1 1575.8423 637)" class="st1 st2 st3">НЕСЕБЪР</text>
		</g>
		<g>
			<circle class="st1" cx="1575" cy="749" r="1"/>
			<text transform="matrix(1 0 0 1 1549.212 749)" class="st1 st2 st3">СОЗОПОЛ</text>
		</g>
		<g>
			<circle class="st1" cx="1641" cy="856" r="1"/>
			<text transform="matrix(1 0 0 1 1616.5802 856)" class="st1 st2 st3">АХТОПОЛ</text>
		</g>
		<g>
			<circle class="st1" cx="1612" cy="829" r="1"/>
			<text transform="matrix(1 0 0 1 1590.7662 829)" class="st1 st2 st3">ЦАРЕВО</text>
		</g>
		<g>
			<circle class="st1" cx="1593" cy="794" r="1"/>
			<text transform="matrix(1 0 0 1 1559.0823 794)" class="st1 st2 st3">ПРИМОРСКО</text>
		</g>
		<g>
			<circle class="st1" cx="1528" cy="914" r="1"/>
			<text transform="matrix(1 0 0 1 1482.3164 914)" class="st1 st2 st3">МАЛКО ТЪРНОВО</text>
		</g>
	</g>
</g>
</svg>
